HIERARCHY
ROOT hip
{
  OFFSET 0 0 0
  CHANNELS 6 Xposition Yposition Zposition Zrotation Yrotation Xrotation
  JOINT abdomen
  {
    OFFSET 0 20.6881 -0.73152
    CHANNELS 3 Zrotation Xrotation Yrotation
    JOINT chest
    {
      OFFSET 0 11.7043 -0.48768
      CHANNELS 3 Zrotation Xrotation Yrotation
      JOINT neck
      {
        OFFSET 0 22.1894 -2.19456
        CHANNELS 3 Zrotation Xrotation Yrotation
        JOINT head
        {
          OFFSET -0.24384 7.07133 1.2192
          CHANNELS 3 Zrotation Xrotation Yrotation
          JOINT leftEye
          {
            OFFSET 4.14528 8.04674 8.04672
            CHANNELS 3 Zrotation Xrotation Yrotation
            End Site
            {
              OFFSET 1 0 0
            }
          }
          JOINT rightEye
          {
            OFFSET -3.6576 8.04674 8.04672
            CHANNELS 3 Zrotation Xrotation Yrotation
            End Site
            {
              OFFSET 1 0 0
            }
          }
        }
      }
      JOINT rCollar
      {
        OFFSET -2.68224 19.2634 -4.8768
        CHANNELS 3 Zrotation Xrotation Yrotation
        JOINT rShldr
        {
          OFFSET -8.77824 -1.95073 1.46304
          CHANNELS 3 Zrotation Xrotation Yrotation
          JOINT rForeArm
          {
            OFFSET -28.1742 -1.7115 0.48768
            CHANNELS 3 Zrotation Xrotation Yrotation
            JOINT rHand
            {
              OFFSET -22.5879 0.773209 7.07136
              CHANNELS 3 Zrotation Xrotation Yrotation
              JOINT rThumb1
              {
                OFFSET -1.2192 -0.487915 3.41376
                CHANNELS 3 Zrotation Xrotation Yrotation
                JOINT rThumb2
                {
                  OFFSET -3.37035 -0.52449 3.41376
                  CHANNELS 3 Zrotation Xrotation Yrotation
                  End Site
                  {
                    OFFSET -1.78271 -1.18214 1.43049
                  }
                }
              }
              JOINT rIndex1
              {
                OFFSET -7.75947 0.938293 5.60832
                CHANNELS 3 Zrotation Xrotation Yrotation
                JOINT rIndex2
                {
                  OFFSET -2.54057 -0.884171 1.56538
                  CHANNELS 3 Zrotation Xrotation Yrotation
                  End Site
                  {
                    OFFSET -1.62519 -0.234802 1.16502
                  }
                }
              }
              JOINT rMid1
              {
                OFFSET -8.24714 1.18213 3.41376
                CHANNELS 3 Zrotation Xrotation Yrotation
                JOINT rMid2
                {
                  OFFSET -3.10165 -0.590103 1.0647
                  CHANNELS 3 Zrotation Xrotation Yrotation
                  End Site
                  {
                    OFFSET -2.48547 -0.328903 0.83742
                  }
                }
              }
              JOINT rRing1
              {
                OFFSET -8.82822 0.546677 1.51678
                CHANNELS 3 Zrotation Xrotation Yrotation
                JOINT rRing2
                {
                  OFFSET -2.60934 -0.819778 -0.0198488
                  CHANNELS 3 Zrotation Xrotation Yrotation
                  End Site
                  {
                    OFFSET -2.33842 -0.294052 0.168128
                  }
                }
              }
              JOINT rPinky1
              {
                OFFSET -8.27202 -0.0477905 -0.4584
                CHANNELS 3 Zrotation Xrotation Yrotation
                JOINT rPinky2
                {
                  OFFSET -1.82734 -0.647385 -0.700984
                  CHANNELS 3 Zrotation Xrotation Yrotation
                  End Site
                  {
                    OFFSET -1.69225 -0.51767 -0.607171
                  }
                }
              }
            }
          }
        }
      }
      JOINT lCollar
      {
        OFFSET 2.68224 19.2634 -4.8768
        CHANNELS 3 Zrotation Xrotation Yrotation
        JOINT lShldr
        {
          OFFSET 8.77824 -1.95073 1.46304
          CHANNELS 3 Zrotation Xrotation Yrotation
          JOINT lForeArm
          {
            OFFSET 28.1742 -1.7115 0.48768
            CHANNELS 3 Zrotation Xrotation Yrotation
            JOINT lHand
            {
              OFFSET 22.5879 0.773209 7.07136
              CHANNELS 3 Zrotation Xrotation Yrotation
              JOINT lThumb1
              {
                OFFSET 1.2192 -0.487915 3.41376
                CHANNELS 3 Zrotation Xrotation Yrotation
                JOINT lThumb2
                {
                  OFFSET 3.37035 -0.52449 3.41376
                  CHANNELS 3 Zrotation Xrotation Yrotation
                  End Site
                  {
                    OFFSET 1.78271 -1.18214 1.43049
                  }
                }
              }
              JOINT lIndex1
              {
                OFFSET 7.75947 0.938293 5.60832
                CHANNELS 3 Zrotation Xrotation Yrotation
                JOINT lIndex2
                {
                  OFFSET 2.54057 -0.884171 1.56538
                  CHANNELS 3 Zrotation Xrotation Yrotation
                  End Site
                  {
                    OFFSET 1.62519 -0.234802 1.16502
                  }
                }
              }
              JOINT lMid1
              {
                OFFSET 8.24714 1.18213 3.41376
                CHANNELS 3 Zrotation Xrotation Yrotation
                JOINT lMid2
                {
                  OFFSET 3.10165 -0.590103 1.0647
                  CHANNELS 3 Zrotation Xrotation Yrotation
                  End Site
                  {
                    OFFSET 2.48547 -0.328903 0.83742
                  }
                }
              }
              JOINT lRing1
              {
                OFFSET 8.82822 0.546677 1.51678
                CHANNELS 3 Zrotation Xrotation Yrotation
                JOINT lRing2
                {
                  OFFSET 2.60934 -0.819778 -0.0198488
                  CHANNELS 3 Zrotation Xrotation Yrotation
                  End Site
                  {
                    OFFSET 2.33842 -0.294052 0.168128
                  }
                }
              }
              JOINT lPinky1
              {
                OFFSET 8.27202 -0.0477905 -0.4584
                CHANNELS 3 Zrotation Xrotation Yrotation
                JOINT lPinky2
                {
                  OFFSET 1.82734 -0.647385 -0.700984
                  CHANNELS 3 Zrotation Xrotation Yrotation
                  End Site
                  {
                    OFFSET 1.69225 -0.51767 -0.607171
                  }
                }
              }
            }
          }
        }
      }
    }
  }
  JOINT rButtock
  {
    OFFSET -8.77824 4.35084 1.2192
    CHANNELS 3 Zrotation Xrotation Yrotation
    JOINT rThigh
    {
      OFFSET 0 -1.70687 -2.19456
      CHANNELS 3 Zrotation Xrotation Yrotation
      JOINT rShin
      {
        OFFSET 0 -36.8199 0.73152
        CHANNELS 3 Zrotation Xrotation Yrotation
        JOINT rFoot
        {
          OFFSET 0.73152 -45.1104 -5.12064
          CHANNELS 3 Zrotation Xrotation Yrotation
          End Site
          {
            OFFSET -1.1221 -3.69964 12.103
          }
        }
      }
    }
  }
  JOINT lButtock
  {
    OFFSET 8.77824 4.35084 1.2192
    CHANNELS 3 Zrotation Xrotation Yrotation
    JOINT lThigh
    {
      OFFSET 0 -1.70687 -2.19456
      CHANNELS 3 Zrotation Xrotation Yrotation
      JOINT lShin
      {
        OFFSET 0 -36.8199 0.73152
        CHANNELS 3 Zrotation Xrotation Yrotation
        JOINT lFoot
        {
          OFFSET -0.73152 -45.1104 -5.12064
          CHANNELS 3 Zrotation Xrotation Yrotation
          End Site
          {
            OFFSET 1.1221 -3.69964 12.103
          }
        }
      }
    }
  }
}
MOTION
Frames:	5
Frame Time:	0.00833333
0.0 0.0 0.0 0.0 0.0 0.0 0.0 0.0 0.0 0.0 0.0 0.0 0.0 0.0 0.0 0.0 0.0 0.0 0.0 0.0 0.0 0.0 0.0 0.0 0.0 0.0 0.0 0.0 0.0 0.0 0.0 0.0 0.0 0.0 0.0 0.0 0.0 0.0 0.0 0.0 0.0 0.0 0.0 0.0 0.0 0.0 0.0 0.0 0.0 0.0 0.0 0.0 0.0 0.0 0.0 0.0 0.0 0.0 0.0 0.0 0.0 0.0 0.0 0.0 0.0 0.0 0.0 0.0 0.0 0.0 0.0 0.0 0.0 0.0 0.0 0.0 0.0 0.0 0.0 0.0 0.0 0.0 0.0 0.0 0.0 0.0 0.0 0.0 0.0 0.0 0.0 0.0 0.0 0.0 0.0 0.0 0.0 0.0 0.0 0.0 0.0 0.0 0.0 0.0 0.0 0.0 0.0 0.0 0.0 0.0 0.0 0.0 0.0 0.0 0.0 0.0 0.0 0.0 0.0 0.0 0.0 0.0 0.0 0.0 0.0 0.0 0.0 0.0 0.0 0.0 0.0 0.0
-5.458600000000001 82.723 3.2033 12.208047 -20.393047 -4.414513 -9.491177 1.840927 -123.066872 7.451711 0.366286 122.905021 6.075025 26.145975 104.768884 -33.127097 12.159167 -123.209178 0.002356 0.0 0.001862 0.001914 -0.0 -0.001953 2.907994 -22.674331 -4.494696 -70.734608 51.600763 94.406165 46.484534 43.51227 -134.167052 175.847614 1.828464 145.765465 -147.882682 13.326573 85.415042 159.769305 -33.299646 84.769826 7.271467 -12.622344 -3.525382 -7.483544 25.261503 7.669963 -7.525375 19.021112 4.974439 -153.80089 20.509357 138.581065 -145.122767 0.941598 -179.423513 11.851026 29.672418 -5.630601 -139.545386 -3.629045 -136.689154 -150.661996 22.123161 -143.905518 -2.550318 -19.072224 3.828238 -55.76172 -40.25702 42.708839 -177.734333 -40.97259 -25.557884 -157.38357 -32.875904 -140.834893 165.319045 -2.990495 -89.652526 -60.83986 -65.063608 -47.000644 -174.047593 -63.275623 -113.052731 125.334342 35.376597 -104.169914 164.389683 -18.485732 -144.66453 1.276859 12.179247 -2.464493 145.080469 -2.479553 178.347551 149.828638 -36.367697 172.689857 -5.65207 16.831406 -5.077093 143.679992 -0.379203 140.368118 179.978122 75.749239 0.019328 160.516519 35.148729 -153.909207 -40.438384 -41.20246 -114.332868 -126.55594 -19.867656 -172.444702 -179.99128 75.750982 -0.007379 151.720441 66.069114 -89.470012 -40.774109 -26.113386 -39.012056 79.987451 -4.261066 154.962023
-9.1098 82.4851 3.7811999999999997 11.023601 -23.190002 -4.300749 -11.94246 2.101249 87.251297 -7.514629 -1.791779 -87.6627 -15.2524 23.323649 -70.637926 34.845989 8.763392 51.237479 0.002984 -0.0 -0.002722 0.003128 0.0 0.0012 -2.905529 -77.378099 -22.553353 -137.721452 -9.201364 164.590947 -165.064246 -15.96548 -112.192417 -4.766477 16.456993 0.30592 -163.113932 -0.796625 89.384716 -122.719241 8.723042 57.952995 -134.333275 10.818793 112.152624 -0.303158 15.940353 -5.478924 9.409231 -29.52652 -3.208529 -171.968466 -30.71729 144.106816 -145.121049 0.702941 -179.349591 -142.812097 -55.059076 -164.957355 -64.874756 -51.64754 -63.449265 -142.558256 0.420169 -139.870577 77.809493 68.395532 -80.879205 108.949832 -13.418855 -101.013873 -56.967028 -62.564485 103.949858 -167.236053 -10.748701 -147.476019 -8.117448 -8.109756 0.680206 5.026061 3.924708 1.17587 16.117515 21.176116 -10.998223 -81.350295 -59.819986 -33.185866 158.688362 -0.674834 -142.234385 120.517376 56.413682 -110.411799 145.111979 -0.638379 178.926985 -12.143908 36.533473 4.861315 0.722799 -1.853295 0.669102 139.972974 -8.964719 137.49173 179.949832 75.748834 0.039492 165.588513 39.720238 98.353144 43.649787 -11.050258 -82.254409 152.989889 -43.223058 61.785797 179.999922 75.750441 7.5e-05 164.308017 65.1958 -27.935464 -35.742633 33.449702 117.175604 -95.614858 35.96985 -1.705885
-12.4264 82.0293 3.9631 6.071196 -27.212087 -1.891869 -3.520522 0.141395 -81.228371 7.023728 -3.320882 81.380905 -5.765775 33.478442 -158.987026 1.483571 40.219698 144.217672 -0.000562 -0.0 0.005487 0.003729 0.0 0.000627 -5.30734 23.305754 6.406451 99.208519 -59.4479 100.580617 40.688913 -0.320812 66.192584 -30.45728 60.178211 15.560202 13.216884 -13.167457 -0.515725 -2.846979 -1.627966 -6.826561 -3.079135 4.823778 1.826194 9.705908 1.907152 -0.235348 4.496898 -13.863536 -2.087918 -3.77556 18.546155 3.621299 -0.008568 3.561264 1.119845 6.862259 28.37386 4.386139 14.474123 50.186411 11.633528 23.024742 66.969059 8.000696 81.283417 68.347686 -84.390171 -18.199372 14.266486 -90.705211 132.723801 -30.709763 27.435836 -6.890196 -4.976749 -4.921906 2.651806 2.596311 -0.465705 13.818104 13.766527 -13.427422 -9.207536 -16.189076 4.239635 -175.772577 -42.571618 -102.789366 0.288654 0.837664 -0.16074 -163.661561 -67.231735 -129.703585 0.031437 -2.244857 0.708021 -9.850595 8.26384 -1.020092 151.402698 34.215194 146.995954 137.96747 -12.783677 133.926857 -179.96238 75.750331 -0.030286 177.564825 40.45039 179.214332 -8.064187 -53.571372 50.549482 -172.916144 -45.679021 -77.742527 0.003928 -0.00026 0.001772 1.01623 -19.677421 173.729759 35.17799 -54.814394 148.155953 134.133279 43.780203 -60.150452
-15.1825 80.8698 4.475 0.065816 -31.07557 1.801158 -0.075313 -1.089644 -71.970329 6.978314 -3.464502 71.950045 6.377852 20.609846 81.607328 -23.580783 -8.078433 -97.447031 -0.000351 -0.0 0.001589 -6e-05 0.0 -0.002539 -10.811701 -81.893983 -31.372992 44.809928 -24.25714 14.861174 -8.385439 54.57498 74.177011 -6.400715 18.893986 0.278963 -21.274607 18.734628 6.680226 1.296288 -0.618529 11.113082 36.953197 -57.682367 -0.782449 -74.65655 51.567129 62.152979 0.311561 -0.910613 -0.170426 -154.896276 18.191448 139.242316 -142.338897 31.090203 170.033658 -156.088091 -18.07192 -177.385955 15.687569 54.831951 12.224843 -148.471003 12.32203 -143.345248 -1.425156 -9.558477 2.003285 -98.776831 18.609075 29.866828 -176.155468 35.11291 -33.252793 -159.432537 -29.235812 -142.332039 176.074253 -13.701944 -89.738486 -125.13645 -61.136818 -92.337296 139.89172 2.755023 -115.716095 -9.75867 -1.180169 9.449621 165.60268 -22.388537 -144.972301 4.127006 18.974389 -4.143077 145.116533 -0.117507 179.091953 -2.455043 -44.454493 18.13573 157.378143 57.418428 150.530313 -78.922309 84.885194 41.267626 -0.01295 8.7e-05 -0.011107 6.089461 -33.868045 -152.902465 -37.083228 -27.957768 -166.659545 173.527848 57.22754 96.808304 179.995835 75.748517 0.002927 -167.912641 46.753773 147.785564 55.650533 -60.579114 -62.552492 -113.017456 20.314293 31.860296
